<svg width="594" height="585" viewBox="0 0 594 585" fill="none" xmlns="http://www.w3.org/2000/svg">
<rect x="117.714" y="117.714" width="358.571" height="349.571" rx="28" fill="url(#paint0_linear_111_88)" stroke="url(#paint1_linear_111_88)" stroke-width="4"/>
<g filter="url(#filter0_n_111_88)">
<rect x="140.143" y="136.286" width="313.714" height="316.286" rx="30" fill="#0C1B3F"/>
</g>
<line x1="192.286" y1="55.2856" x2="192.286" y2="115.714" stroke="url(#paint2_linear_111_88)" stroke-width="4"/>
<line x1="246.286" y1="86.1426" x2="246.286" y2="115.714" stroke="url(#paint3_linear_111_88)" stroke-width="4"/>
<line x1="356.857" y1="86.1426" x2="356.857" y2="115.714" stroke="url(#paint4_linear_111_88)" stroke-width="4"/>
<line x1="299" y1="55.2856" x2="299" y2="115.714" stroke="url(#paint5_linear_111_88)" stroke-width="4"/>
<line x1="400.571" y1="55.2856" x2="400.571" y2="115.714" stroke="url(#paint6_linear_111_88)" stroke-width="4"/>
<path d="M191.572 2C206.133 2.00022 217.857 13.5238 217.857 27.6426C217.857 41.7615 206.133 53.2859 191.572 53.2861C177.011 53.2861 165.286 41.7616 165.286 27.6426C165.286 13.5236 177.011 2 191.572 2Z" fill="#122F5F" stroke="#0C1E3D" stroke-width="4"/>
<path d="M298.286 2C312.847 2.00022 324.571 13.5238 324.571 27.6426C324.571 41.7615 312.847 53.2859 298.286 53.2861C283.725 53.2861 272 41.7616 272 27.6426C272 13.5236 283.725 2 298.286 2Z" fill="#454A9F" stroke="#2E3276" stroke-width="4"/>
<path d="M401.143 2C415.704 2.00022 427.428 13.5238 427.428 27.6426C427.428 41.7615 415.704 53.2859 401.143 53.2861C386.583 53.2861 374.857 41.7616 374.857 27.6426C374.857 13.5236 386.583 2 401.143 2Z" fill="#5CA28F" stroke="#45786A" stroke-width="4"/>
<line x1="55.2856" y1="403" x2="115.714" y2="403" stroke="url(#paint7_linear_111_88)" stroke-width="4"/>
<line x1="86.1428" y1="349" x2="115.714" y2="349" stroke="url(#paint8_linear_111_88)" stroke-width="4"/>
<line x1="86.1428" y1="238.428" x2="115.714" y2="238.428" stroke="url(#paint9_linear_111_88)" stroke-width="4"/>
<line x1="55.2856" y1="296.286" x2="115.714" y2="296.286" stroke="url(#paint10_linear_111_88)" stroke-width="4"/>
<line x1="55.2856" y1="194.714" x2="115.714" y2="194.714" stroke="url(#paint11_linear_111_88)" stroke-width="4"/>
<path d="M2 403.714C2.00022 389.154 13.5238 377.429 27.6426 377.429C41.7615 377.429 53.2859 389.154 53.2861 403.714C53.2861 418.275 41.7616 430 27.6426 430C13.5236 430 2 418.275 2 403.714Z" fill="#5CA28F" stroke="#4A7F70" stroke-width="4"/>
<path d="M2 297C2.00022 282.439 13.5238 270.715 27.6426 270.714C41.7615 270.714 53.2859 282.439 53.2861 297C53.2861 311.56 41.7616 323.286 27.6426 323.286C13.5236 323.285 2 311.56 2 297Z" fill="#454A9F" stroke="#333675" stroke-width="4"/>
<path d="M2 194.142C2.00022 179.582 13.5238 167.857 27.6426 167.857C41.7615 167.857 53.2859 179.581 53.2861 194.142C53.2861 208.703 41.7616 220.428 27.6426 220.428C13.5236 220.428 2 208.703 2 194.142Z" fill="#122F5F" stroke="#0E254D" stroke-width="4"/>
<line x1="538.714" y1="183.286" x2="478.286" y2="183.286" stroke="url(#paint12_linear_111_88)" stroke-width="4"/>
<line x1="507.857" y1="237.286" x2="478.286" y2="237.286" stroke="url(#paint13_linear_111_88)" stroke-width="4"/>
<line x1="507.857" y1="347.857" x2="478.286" y2="347.857" stroke="url(#paint14_linear_111_88)" stroke-width="4"/>
<line x1="538.714" y1="290" x2="478.286" y2="290" stroke="url(#paint15_linear_111_88)" stroke-width="4"/>
<line x1="538.714" y1="391.571" x2="478.286" y2="391.571" stroke="url(#paint16_linear_111_88)" stroke-width="4"/>
<path d="M592 182.572C592 197.132 580.476 208.857 566.357 208.857C552.238 208.857 540.714 197.132 540.714 182.572C540.714 168.011 552.238 156.286 566.357 156.286C580.476 156.286 592 168.011 592 182.572Z" fill="#5CA28F" stroke="#467A6C" stroke-width="4"/>
<path d="M592 289.286C592 303.847 580.476 315.571 566.357 315.571C552.238 315.571 540.714 303.847 540.714 289.286C540.714 274.725 552.238 263 566.357 263C580.476 263 592 274.725 592 289.286Z" fill="#454A9F" stroke="#31346A" stroke-width="4"/>
<path d="M592 392.143C592 406.704 580.476 418.428 566.357 418.428C552.238 418.428 540.714 406.704 540.714 392.143C540.714 377.582 552.238 365.857 566.357 365.857C580.476 365.857 592 377.582 592 392.143Z" fill="#122F5F" stroke="#0D2140" stroke-width="4"/>
<line x1="401.714" y1="529.714" x2="401.714" y2="469.286" stroke="url(#paint17_linear_111_88)" stroke-width="4"/>
<line x1="347.714" y1="498.857" x2="347.714" y2="469.286" stroke="url(#paint18_linear_111_88)" stroke-width="4"/>
<line x1="237.143" y1="498.857" x2="237.143" y2="469.286" stroke="url(#paint19_linear_111_88)" stroke-width="4"/>
<line x1="295" y1="529.714" x2="295" y2="469.286" stroke="url(#paint20_linear_111_88)" stroke-width="4"/>
<line x1="193.429" y1="529.714" x2="193.429" y2="469.286" stroke="url(#paint21_linear_111_88)" stroke-width="4"/>
<path d="M402.428 583C387.867 583 376.143 571.476 376.143 557.357C376.143 543.238 387.867 531.714 402.428 531.714C416.989 531.714 428.714 543.238 428.714 557.357C428.714 571.476 416.989 583 402.428 583Z" fill="#5CA28F" stroke="#3F7E6D" stroke-width="4"/>
<path d="M295.714 583C281.153 583 269.429 571.476 269.429 557.357C269.429 543.238 281.153 531.714 295.714 531.714C310.275 531.714 322 543.238 322 557.357C322 571.476 310.275 583 295.714 583Z" fill="#454A9F" stroke="#2E316F" stroke-width="4"/>
<path d="M192.857 583C178.296 583 166.572 571.476 166.572 557.357C166.572 543.238 178.296 531.714 192.857 531.714C207.417 531.714 219.143 543.238 219.143 557.357C219.143 571.476 207.417 583 192.857 583Z" fill="#122F5F" stroke="#0B1F41" stroke-width="4"/>
<path d="M248.143 150.429V191.572" stroke="#8CE58E" stroke-width="4"/>
<line x1="193.054" y1="190.229" x2="241.911" y2="244.229" stroke="url(#paint22_linear_111_88)" stroke-width="4"/>
<line x1="155.571" y1="238.428" x2="200.571" y2="238.428" stroke="#5ACEE0" stroke-width="4"/>
<path d="M266.786 435.857V420.429" stroke="#59C16C" stroke-width="4"/>
<path d="M286 399.857C286 400.962 286.895 401.857 288 401.857C289.105 401.857 290 400.962 290 399.857H288H286ZM288 399.857H290V370.286H288H286V399.857H288Z" fill="#59C16C"/>
<path d="M300.857 399.857V370.286" stroke="url(#paint23_linear_111_88)" stroke-width="4"/>
<path d="M281.572 412.714L288 399.857" stroke="#59C16C" stroke-width="4" stroke-linecap="round"/>
<path d="M306 412.714L300.857 399.857" stroke="#59C16C" stroke-width="4" stroke-linecap="round"/>
<path d="M308 412.715C308 411.61 307.105 410.715 306 410.715C304.895 410.715 304 411.61 304 412.715L306 412.715L308 412.715ZM306 435.857L308 435.857L308 412.715L306 412.715L304 412.715L304 435.857L306 435.857Z" fill="#59C16C"/>
<path d="M283.572 412.715C283.572 411.61 282.676 410.715 281.572 410.715C280.467 410.715 279.572 411.61 279.572 412.715L281.572 412.715L283.572 412.715ZM281.572 435.857L283.572 435.857L283.572 412.715L281.572 412.715L279.572 412.715L279.572 435.857L281.572 435.857Z" fill="url(#paint24_linear_111_88)"/>
<path d="M324 435.857V399.857" stroke="#55C8D5" stroke-width="4"/>
<line x1="370.015" y1="406.257" x2="343.015" y2="372.829" stroke="url(#paint25_linear_111_88)" stroke-width="4"/>
<line x1="423" y1="404.429" x2="367.714" y2="404.429" stroke="#55C8D5" stroke-width="4"/>
<line x1="425.265" y1="398.496" x2="400.836" y2="366.353" stroke="url(#paint26_linear_111_88)" stroke-width="4"/>
<path d="M455.143 262.286L406.286 262.286" stroke="#A0E662" stroke-width="4"/>
<path d="M424.286 427.5L424.286 397.286" stroke="#55C8D5" stroke-width="4"/>
<path d="M197.357 237.214L217.928 261.642" stroke="url(#paint27_linear_111_88)" stroke-width="4"/>
<line x1="247.083" y1="190.261" x2="263.797" y2="209.547" stroke="url(#paint28_linear_111_88)" stroke-width="4"/>
<path d="M299.571 150.429V181.286" stroke="#A5E668" stroke-width="4"/>
<circle cx="220.5" cy="265.501" r="5.78571" fill="#5ECD94"/>
<circle cx="244.929" cy="247.5" r="5.78571" fill="#5ECD94"/>
<circle cx="300.214" cy="185.785" r="5.78571" fill="#A5E668"/>
<circle cx="266.786" cy="417.214" r="5.78571" fill="#59C16C"/>
<circle cx="323.357" cy="396.643" r="5.78571" fill="#55C8D5"/>
<ellipse cx="397.286" cy="360.643" rx="10.2857" ry="9.64286" fill="#5BCBA0"/>
<circle cx="404.357" cy="261.643" r="7.07143" fill="#A0E662"/>
<circle cx="336.214" cy="365.785" r="9.42857" stroke="#5BCBA0" stroke-width="3"/>
<circle cx="269.357" cy="215.357" r="9.42857" stroke="#A5E668" stroke-width="3"/>
<circle cx="188.357" cy="184.5" r="9.42857" stroke="#5ACEE0" stroke-width="3"/>
<g filter="url(#filter1_f_111_88)">
<ellipse cx="261.643" cy="325.286" rx="44.3571" ry="43.7143" fill="#3C9F6A"/>
</g>
<path d="M329.215 203.388C331.714 202.312 342.962 199.621 346.399 198.006C349.836 196.391 352.961 193.162 352.961 193.162L359.522 184.013C359.522 184.013 362.022 178.362 364.521 175.402C367.021 172.441 368.583 171.096 371.708 169.212C374.832 167.329 379.206 164.368 383.268 164.099C387.33 163.83 396.078 160.601 404.827 169.212C413.576 177.823 408.889 185.896 408.889 185.896C408.889 185.896 402.952 195.853 401.078 198.006C399.203 200.159 396.391 203.657 393.891 205.272C391.392 206.886 383.268 209.846 383.268 209.846C383.268 209.846 377.019 210.654 371.708 214.959C366.396 219.265 364.521 223.84 364.521 223.84C364.521 223.84 360.459 231.913 356.71 236.218C352.961 240.524 352.336 242.139 346.399 246.175C340.463 250.212 338.901 252.095 332.964 253.441C327.028 254.786 316.404 256.939 305.781 246.175C295.158 235.411 300.782 226.531 303.594 223.84C306.406 221.149 314.53 212.807 316.404 211.461C318.279 210.116 326.715 204.464 329.215 203.388Z" stroke="black" stroke-width="3"/>
<path d="M329.215 203.388C331.714 202.312 342.962 199.621 346.399 198.006C349.836 196.391 352.961 193.162 352.961 193.162L359.522 184.013C359.522 184.013 362.022 178.362 364.521 175.402C367.021 172.441 368.583 171.096 371.708 169.212C374.832 167.329 379.206 164.368 383.268 164.099C387.33 163.83 396.078 160.601 404.827 169.212C413.576 177.823 408.889 185.896 408.889 185.896C408.889 185.896 402.952 195.853 401.078 198.006C399.203 200.159 396.391 203.657 393.891 205.272C391.392 206.886 383.268 209.846 383.268 209.846C383.268 209.846 377.019 210.654 371.708 214.959C366.396 219.265 364.521 223.84 364.521 223.84C364.521 223.84 360.459 231.913 356.71 236.218C352.961 240.524 352.336 242.139 346.399 246.175C340.463 250.212 338.901 252.095 332.964 253.441C327.028 254.786 316.404 256.939 305.781 246.175C295.158 235.411 300.782 226.531 303.594 223.84C306.406 221.149 314.53 212.807 316.404 211.461C318.279 210.116 326.715 204.464 329.215 203.388Z" stroke="black" stroke-width="3"/>
<path d="M329.215 203.388C331.714 202.312 342.962 199.621 346.399 198.006C349.836 196.391 352.961 193.162 352.961 193.162L359.522 184.013C359.522 184.013 362.022 178.362 364.521 175.402C367.021 172.441 368.583 171.096 371.708 169.212C374.832 167.329 379.206 164.368 383.268 164.099C387.33 163.83 396.078 160.601 404.827 169.212C413.576 177.823 408.889 185.896 408.889 185.896C408.889 185.896 402.952 195.853 401.078 198.006C399.203 200.159 396.391 203.657 393.891 205.272C391.392 206.886 383.268 209.846 383.268 209.846C383.268 209.846 377.019 210.654 371.708 214.959C366.396 219.265 364.521 223.84 364.521 223.84C364.521 223.84 360.459 231.913 356.71 236.218C352.961 240.524 352.336 242.139 346.399 246.175C340.463 250.212 338.901 252.095 332.964 253.441C327.028 254.786 316.404 256.939 305.781 246.175C295.158 235.411 300.782 226.531 303.594 223.84C306.406 221.149 314.53 212.807 316.404 211.461C318.279 210.116 326.715 204.464 329.215 203.388Z" stroke="black" stroke-width="3"/>
<path d="M329.215 203.388C331.714 202.312 342.962 199.621 346.399 198.006C349.836 196.391 352.961 193.162 352.961 193.162L359.522 184.013C359.522 184.013 362.022 178.362 364.521 175.402C367.021 172.441 368.583 171.096 371.708 169.212C374.832 167.329 379.206 164.368 383.268 164.099C387.33 163.83 396.078 160.601 404.827 169.212C413.576 177.823 408.889 185.896 408.889 185.896C408.889 185.896 402.952 195.853 401.078 198.006C399.203 200.159 396.391 203.657 393.891 205.272C391.392 206.886 383.268 209.846 383.268 209.846C383.268 209.846 377.019 210.654 371.708 214.959C366.396 219.265 364.521 223.84 364.521 223.84C364.521 223.84 360.459 231.913 356.71 236.218C352.961 240.524 352.336 242.139 346.399 246.175C340.463 250.212 338.901 252.095 332.964 253.441C327.028 254.786 316.404 256.939 305.781 246.175C295.158 235.411 300.782 226.531 303.594 223.84C306.406 221.149 314.53 212.807 316.404 211.461C318.279 210.116 326.715 204.464 329.215 203.388Z" stroke="#D4F981" stroke-width="3"/>
<g filter="url(#filter2_f_111_88)">
<ellipse cx="342.643" cy="254.572" rx="44.3571" ry="43.7143" fill="#7BC93A"/>
</g>
<g filter="url(#filter3_f_111_88)">
<ellipse cx="197.357" cy="394.714" rx="44.3571" ry="43.7143" fill="#E24FDF"/>
</g>
<path d="M387 177.429L389.431 183.998L396 186.429L389.431 188.86L387 195.429L384.569 188.86L378 186.429L384.569 183.998L387 177.429Z" fill="#CBF777"/>
<path d="M261 261L263.431 267.569L270 270L263.431 272.431L261 279L258.569 272.431L252 270L258.569 267.569L261 261Z" fill="#CBF777"/>
<path d="M207.643 354.857L214.355 380.998L239.307 369.864L222.725 391.326L247.127 403.583L219.737 404.206L225.215 430.624L207.643 409.938L190.071 430.624L195.548 404.206L168.158 403.583L192.561 391.326L175.979 369.864L200.931 380.998L207.643 354.857Z" fill="url(#paint29_linear_111_88)"/>
<circle cx="320.786" cy="232.072" r="5.28571" stroke="#ABE360"/>
<path d="M347.785 207.5C352.868 207.5 356.929 211.338 356.929 216C356.929 220.662 352.868 224.5 347.785 224.5C342.703 224.5 338.643 220.662 338.643 216C338.643 211.338 342.703 207.5 347.785 207.5Z" stroke="#BBCCA5"/>
<circle cx="347.786" cy="215.357" r="4" stroke="#BBCCA5"/>
<circle cx="337.5" cy="229.5" r="2.71429" stroke="#C7EA99"/>
<defs>
<filter id="filter0_n_111_88" x="140.143" y="136.286" width="313.714" height="316.286" filterUnits="userSpaceOnUse" color-interpolation-filters="sRGB">
<feFlood flood-opacity="0" result="BackgroundImageFix"/>
<feBlend mode="normal" in="SourceGraphic" in2="BackgroundImageFix" result="shape"/>
<feTurbulence type="fractalNoise" baseFrequency="2 2" stitchTiles="stitch" numOctaves="3" result="noise" seed="6172" />
<feColorMatrix in="noise" type="luminanceToAlpha" result="alphaNoise" />
<feComponentTransfer in="alphaNoise" result="coloredNoise1">
<feFuncA type="discrete" tableValues="1 1 1 1 1 1 1 1 1 1 1 1 1 1 1 1 1 1 1 1 1 1 1 1 1 1 1 1 1 1 1 1 1 1 1 1 1 1 1 1 1 1 1 1 1 1 1 1 1 1 1 0 0 0 0 0 0 0 0 0 0 0 0 0 0 0 0 0 0 0 0 0 0 0 0 0 0 0 0 0 0 0 0 0 0 0 0 0 0 0 0 0 0 0 0 0 0 0 0 0 "/>
</feComponentTransfer>
<feComposite operator="in" in2="shape" in="coloredNoise1" result="noise1Clipped" />
<feFlood flood-color="rgba(0, 0, 0, 0.25)" result="color1Flood" />
<feComposite operator="in" in2="noise1Clipped" in="color1Flood" result="color1" />
<feMerge result="effect1_noise_111_88">
<feMergeNode in="shape" />
<feMergeNode in="color1" />
</feMerge>
</filter>
<filter id="filter1_f_111_88" x="147.286" y="211.571" width="228.714" height="227.429" filterUnits="userSpaceOnUse" color-interpolation-filters="sRGB">
<feFlood flood-opacity="0" result="BackgroundImageFix"/>
<feBlend mode="normal" in="SourceGraphic" in2="BackgroundImageFix" result="shape"/>
<feGaussianBlur stdDeviation="35" result="effect1_foregroundBlur_111_88"/>
</filter>
<filter id="filter2_f_111_88" x="228.286" y="140.857" width="228.714" height="227.429" filterUnits="userSpaceOnUse" color-interpolation-filters="sRGB">
<feFlood flood-opacity="0" result="BackgroundImageFix"/>
<feBlend mode="normal" in="SourceGraphic" in2="BackgroundImageFix" result="shape"/>
<feGaussianBlur stdDeviation="35" result="effect1_foregroundBlur_111_88"/>
</filter>
<filter id="filter3_f_111_88" x="63" y="261" width="268.714" height="267.429" filterUnits="userSpaceOnUse" color-interpolation-filters="sRGB">
<feFlood flood-opacity="0" result="BackgroundImageFix"/>
<feBlend mode="normal" in="SourceGraphic" in2="BackgroundImageFix" result="shape"/>
<feGaussianBlur stdDeviation="45" result="effect1_foregroundBlur_111_88"/>
</filter>
<linearGradient id="paint0_linear_111_88" x1="408.214" y1="194.142" x2="65.5715" y2="522" gradientUnits="userSpaceOnUse">
<stop stop-color="#B0E257"/>
<stop offset="0.451923" stop-color="#328E95"/>
<stop offset="0.903846" stop-color="#122F5F"/>
</linearGradient>
<linearGradient id="paint1_linear_111_88" x1="137.571" y1="444.214" x2="501.429" y2="115.714" gradientUnits="userSpaceOnUse">
<stop stop-color="#5CA28F"/>
<stop offset="1" stop-color="#223C35"/>
</linearGradient>
<linearGradient id="paint2_linear_111_88" x1="189.786" y1="55.2856" x2="189.786" y2="115.714" gradientUnits="userSpaceOnUse">
<stop stop-color="#0C1E3D"/>
<stop offset="1" stop-color="#494EA9"/>
</linearGradient>
<linearGradient id="paint3_linear_111_88" x1="243.786" y1="86.1426" x2="243.786" y2="115.714" gradientUnits="userSpaceOnUse">
<stop/>
<stop offset="1" stop-color="#464BA2"/>
</linearGradient>
<linearGradient id="paint4_linear_111_88" x1="354.357" y1="86.1426" x2="354.357" y2="115.714" gradientUnits="userSpaceOnUse">
<stop/>
<stop offset="1" stop-color="#454A9F"/>
</linearGradient>
<linearGradient id="paint5_linear_111_88" x1="296.5" y1="55.2856" x2="296.5" y2="115.714" gradientUnits="userSpaceOnUse">
<stop stop-color="#2E3276"/>
<stop offset="1" stop-color="#454A9F"/>
</linearGradient>
<linearGradient id="paint6_linear_111_88" x1="398.071" y1="55.2856" x2="398.071" y2="115.714" gradientUnits="userSpaceOnUse">
<stop stop-color="#45786A"/>
<stop offset="1" stop-color="#454A9F"/>
</linearGradient>
<linearGradient id="paint7_linear_111_88" x1="55.2856" y1="405.5" x2="115.714" y2="405.5" gradientUnits="userSpaceOnUse">
<stop stop-color="#4A7F70"/>
<stop offset="1" stop-color="#454A9F"/>
</linearGradient>
<linearGradient id="paint8_linear_111_88" x1="86.1428" y1="351.5" x2="115.714" y2="351.5" gradientUnits="userSpaceOnUse">
<stop/>
<stop offset="1" stop-color="#454A9F"/>
</linearGradient>
<linearGradient id="paint9_linear_111_88" x1="86.1428" y1="240.928" x2="115.714" y2="240.928" gradientUnits="userSpaceOnUse">
<stop/>
<stop offset="1" stop-color="#454A9F"/>
</linearGradient>
<linearGradient id="paint10_linear_111_88" x1="55.2856" y1="298.786" x2="115.714" y2="298.786" gradientUnits="userSpaceOnUse">
<stop stop-color="#333675"/>
<stop offset="1" stop-color="#454A9F"/>
</linearGradient>
<linearGradient id="paint11_linear_111_88" x1="55.2856" y1="197.214" x2="115.714" y2="197.214" gradientUnits="userSpaceOnUse">
<stop stop-color="#0E254D"/>
<stop offset="1" stop-color="#454A9F"/>
</linearGradient>
<linearGradient id="paint12_linear_111_88" x1="478.286" y1="180.786" x2="538.714" y2="180.786" gradientUnits="userSpaceOnUse">
<stop stop-color="#454A9F"/>
<stop offset="1" stop-color="#467A6C"/>
</linearGradient>
<linearGradient id="paint13_linear_111_88" x1="478.286" y1="234.786" x2="507.857" y2="234.786" gradientUnits="userSpaceOnUse">
<stop stop-color="#454A9F"/>
<stop offset="1"/>
</linearGradient>
<linearGradient id="paint14_linear_111_88" x1="478.286" y1="345.357" x2="507.857" y2="345.357" gradientUnits="userSpaceOnUse">
<stop stop-color="#454A9F"/>
<stop offset="1"/>
</linearGradient>
<linearGradient id="paint15_linear_111_88" x1="478.286" y1="287.5" x2="538.714" y2="287.5" gradientUnits="userSpaceOnUse">
<stop stop-color="#454A9F"/>
<stop offset="1" stop-color="#31346A"/>
</linearGradient>
<linearGradient id="paint16_linear_111_88" x1="478.286" y1="389.071" x2="538.714" y2="389.071" gradientUnits="userSpaceOnUse">
<stop stop-color="#454A9F"/>
<stop offset="1" stop-color="#0D2140"/>
</linearGradient>
<linearGradient id="paint17_linear_111_88" x1="404.214" y1="469.286" x2="404.214" y2="529.714" gradientUnits="userSpaceOnUse">
<stop stop-color="#454A9F"/>
<stop offset="1" stop-color="#3F7E6D"/>
</linearGradient>
<linearGradient id="paint18_linear_111_88" x1="350.214" y1="469.286" x2="350.214" y2="498.857" gradientUnits="userSpaceOnUse">
<stop stop-color="#454A9F"/>
<stop offset="1"/>
</linearGradient>
<linearGradient id="paint19_linear_111_88" x1="239.643" y1="469.286" x2="239.643" y2="498.857" gradientUnits="userSpaceOnUse">
<stop stop-color="#454A9F"/>
<stop offset="1"/>
</linearGradient>
<linearGradient id="paint20_linear_111_88" x1="297.5" y1="469.286" x2="297.5" y2="529.714" gradientUnits="userSpaceOnUse">
<stop stop-color="#454A9F"/>
<stop offset="1" stop-color="#2E316F"/>
</linearGradient>
<linearGradient id="paint21_linear_111_88" x1="195.929" y1="469.286" x2="195.929" y2="529.714" gradientUnits="userSpaceOnUse">
<stop stop-color="#454A9F"/>
<stop offset="1" stop-color="#0B1F41"/>
</linearGradient>
<linearGradient id="paint22_linear_111_88" x1="191.201" y1="191.907" x2="240.058" y2="245.907" gradientUnits="userSpaceOnUse">
<stop stop-color="#5AC8E0"/>
<stop offset="1" stop-color="#5ECD94"/>
</linearGradient>
<linearGradient id="paint23_linear_111_88" x1="301.357" y1="370.286" x2="301.357" y2="399.857" gradientUnits="userSpaceOnUse">
<stop stop-color="#59C16C"/>
<stop offset="1" stop-color="#54CED3"/>
</linearGradient>
<linearGradient id="paint24_linear_111_88" x1="282.072" y1="412.715" x2="282.072" y2="435.857" gradientUnits="userSpaceOnUse">
<stop stop-color="#59C16C"/>
<stop offset="1" stop-color="#CBD165"/>
</linearGradient>
<linearGradient id="paint25_linear_111_88" x1="344.96" y1="371.258" x2="371.96" y2="404.686" gradientUnits="userSpaceOnUse">
<stop stop-color="#5CCC9C"/>
<stop offset="1" stop-color="#55C8D5"/>
</linearGradient>
<linearGradient id="paint26_linear_111_88" x1="402.827" y1="364.841" x2="427.255" y2="396.984" gradientUnits="userSpaceOnUse">
<stop stop-color="#5ECD93"/>
<stop offset="1" stop-color="#55C8D5"/>
</linearGradient>
<linearGradient id="paint27_linear_111_88" x1="197.357" y1="237.214" x2="217.928" y2="261.642" gradientUnits="userSpaceOnUse">
<stop stop-color="#54CED3"/>
<stop offset="1" stop-color="#60CE8A"/>
</linearGradient>
<linearGradient id="paint28_linear_111_88" x1="245.194" y1="191.899" x2="261.908" y2="211.184" gradientUnits="userSpaceOnUse">
<stop stop-color="#8CE58E"/>
<stop offset="1" stop-color="#AAE763"/>
</linearGradient>
<linearGradient id="paint29_linear_111_88" x1="207.643" y1="354.857" x2="207.643" y2="434.571" gradientUnits="userSpaceOnUse">
<stop stop-color="#A1E363"/>
<stop offset="1" stop-color="#5ACDE0"/>
</linearGradient>
</defs>
</svg>
